<svg width="40" height="40" viewBox="0 0 40 40" fill="none" xmlns="http://www.w3.org/2000/svg">
<path fill-rule="evenodd" clip-rule="evenodd" d="M20 33.3333C8.44329 33.3333 6.66663 30.2083 6.66663 20.8333C6.66663 11.4583 8.44329 8.33333 20 8.33333C31.5566 8.33333 33.3333 11.4583 33.3333 20.8333C33.3333 30.2083 31.5566 33.3333 20 33.3333Z" stroke="#F26950" stroke-width="3" stroke-linecap="round" stroke-linejoin="round"/>
<path d="M8.33337 16.6667H31.6667" stroke="#F26950" stroke-width="3" stroke-linecap="round" stroke-linejoin="round"/>
<path d="M15 5V11.6667" stroke="#F26950" stroke-width="3" stroke-linecap="round" stroke-linejoin="round"/>
<path d="M25 5V11.6667" stroke="#F26950" stroke-width="3" stroke-linecap="round" stroke-linejoin="round"/>
<path d="M15.1667 23.3333C15.1667 23.4266 15.0933 23.5 15 23.5C14.9068 23.5 14.8334 23.4266 14.8334 23.3333C14.8334 23.2401 14.9068 23.1667 15 23.1667C15.0933 23.1667 15.1667 23.2401 15.1667 23.3333Z" fill="#F26950" stroke="#F26950" stroke-width="3"/>
<path d="M20.1667 23.3333C20.1667 23.4266 20.0933 23.5 20 23.5C19.9068 23.5 19.8334 23.4266 19.8334 23.3333C19.8334 23.2401 19.9068 23.1667 20 23.1667C20.0933 23.1667 20.1667 23.2401 20.1667 23.3333Z" fill="#F26950" stroke="#F26950" stroke-width="3"/>
<path d="M25.1667 23.3333C25.1667 23.4266 25.0933 23.5 25 23.5C24.9068 23.5 24.8334 23.4266 24.8334 23.3333C24.8334 23.2401 24.9068 23.1667 25 23.1667C25.0933 23.1667 25.1667 23.2401 25.1667 23.3333Z" fill="#F26950" stroke="#F26950" stroke-width="3"/>
</svg>
