<svg width="414" height="256" viewBox="0 0 414 256" fill="none" xmlns="http://www.w3.org/2000/svg">
<mask id="mask0_15_247" style="mask-type:alpha" maskUnits="userSpaceOnUse" x="0" y="0" width="414" height="256">
<rect width="414" height="256" fill="#C4C4C4"/>
</mask>
<g mask="url(#mask0_15_247)">
<path fill-rule="evenodd" clip-rule="evenodd" d="M30 369C148.741 369 245 272.741 245 154C245 35.2588 148.741 -61 30 -61C-88.7412 -61 -185 35.2588 -185 154C-185 272.741 -88.7412 369 30 369ZM30 256.352C86.5275 256.352 132.352 210.527 132.352 154C132.352 97.4725 86.5275 51.6479 30 51.6479C-26.5275 51.6479 -72.3521 97.4725 -72.3521 154C-72.3521 210.527 -26.5275 256.352 30 256.352Z" fill="url(#paint0_linear_15_247)"/>
<path d="M349 119.5C335.8 8.3 279.5 -27.5 253 -31.5L316.5 -116L508 -90.5C517.833 -20.5 521.7 103.7 458.5 40.5C379.5 -38.5 365.5 258.5 349 119.5Z" fill="url(#paint1_linear_15_247)"/>
</g>
<defs>
<linearGradient id="paint0_linear_15_247" x1="1178.5" y1="843" x2="-3.00007" y2="54.4999" gradientUnits="userSpaceOnUse">
<stop stop-color="#5A55CA"/>
<stop offset="1" stop-color="white" stop-opacity="0"/>
</linearGradient>
<linearGradient id="paint1_linear_15_247" x1="146.5" y1="12.5" x2="352.219" y2="121.602" gradientUnits="userSpaceOnUse">
<stop stop-color="#5A55CA"/>
<stop offset="1" stop-color="white" stop-opacity="0"/>
</linearGradient>
</defs>
</svg>
