<svg width="65" height="65" viewBox="0 0 65 65" fill="none" xmlns="http://www.w3.org/2000/svg">
<path d="M61.1446 23.7862L51.0906 13.6887L46.2949 18.505L56.349 28.6025C58.4944 30.7572 58.4944 34.2216 56.349 36.3763L36.2829 56.5291C34.1375 58.6838 30.688 58.6838 28.5426 56.5291L8.43446 36.3763C7.38279 35.3201 6.83591 33.9682 6.83591 32.4894C6.83591 31.0107 7.38279 29.6588 8.43446 28.6025L28.5005 8.44979C30.6459 6.29509 34.0954 6.29509 36.2409 8.44979L41.4572 13.6887L46.2949 8.87228L41.0365 3.59116C38.7228 1.26747 35.6519 0 32.3707 0C29.0894 0 26.0185 1.26747 23.7048 3.59116L3.59674 23.7862C-1.19891 28.6025 -1.19891 36.4186 3.59674 41.235L23.6628 61.3877C28.4584 66.2041 36.2409 66.2041 41.0365 61.3877L61.1025 41.235C65.9403 36.4186 65.9403 28.6025 61.1446 23.7862Z" fill="#5A55CA"/>
<path d="M58.3261 11.2805C56.98 9.92849 54.8345 9.92849 53.4884 11.2805L32.3707 32.4894L25.1351 25.2226C23.789 23.8706 21.6436 23.8706 20.3395 25.2226C18.9933 26.5746 18.9933 28.7293 20.3395 30.0812L29.9729 39.7562C31.319 41.1082 33.4644 41.1082 34.7685 39.7562L58.284 16.1391C59.6302 14.7871 59.6302 12.5902 58.3261 11.2805Z" fill="#5A55CA"/>
<path d="M55.9158 18.5285L51.097 23.3682L53.5064 25.788L58.3252 20.9483L55.9158 18.5285Z" fill="#F26950"/>
<path d="M32.3707 58.1345C30.9825 58.1345 29.5522 57.5853 28.5005 56.5291L8.43446 36.3763C7.38279 35.3201 6.83591 33.9682 6.83591 32.4894C6.83591 31.0107 7.38279 29.6588 8.43446 28.6025L28.5005 8.44979C29.5522 7.39357 30.9825 6.84433 32.3707 6.84433V0C29.0894 0 26.0185 1.26747 23.7048 3.59116L3.59674 23.7862C-1.19891 28.6025 -1.19891 36.4186 3.59674 41.235L23.6628 61.3877C26.0606 63.7959 29.2156 64.9789 32.3286 64.9789V58.1345H32.3707Z" fill="#F26950"/>
<path d="M32.3707 32.4894L25.1351 25.2226C23.789 23.8706 21.6436 23.8706 20.3395 25.2226C18.9933 26.5746 18.9933 28.7293 20.3395 30.0812L29.9729 39.7562C30.6459 40.4322 31.4873 40.7702 32.3707 40.7702V32.4894Z" fill="#F26950"/>
</svg>
