<svg width="24" height="24" viewBox="0 0 24 24" fill="none" xmlns="http://www.w3.org/2000/svg">
<g opacity="0.3">
<path fill-rule="evenodd" clip-rule="evenodd" d="M17 10C14.4 10 14 9.25 14 7C14 4.75 14.4 4 17 4C19.6 4 20 4.75 20 7C20 9.25 19.6 10 17 10Z" stroke="white" stroke-width="2" stroke-linecap="round" stroke-linejoin="round"/>
<path fill-rule="evenodd" clip-rule="evenodd" d="M17 20C14.4 20 14 19.25 14 17C14 14.75 14.4 14 17 14C19.6 14 20 14.75 20 17C20 19.25 19.6 20 17 20Z" stroke="white" stroke-width="2" stroke-linecap="round" stroke-linejoin="round"/>
<path fill-rule="evenodd" clip-rule="evenodd" d="M7 10C4.4 10 4 9.25 4 7C4 4.75 4.4 4 7 4C9.6 4 10 4.75 10 7C10 9.25 9.6 10 7 10Z" stroke="white" stroke-width="2" stroke-linecap="round" stroke-linejoin="round"/>
<path fill-rule="evenodd" clip-rule="evenodd" d="M7 20C4.4 20 4 19.25 4 17C4 14.75 4.4 14 7 14C9.6 14 10 14.75 10 17C10 19.25 9.6 20 7 20Z" stroke="white" stroke-width="2" stroke-linecap="round" stroke-linejoin="round"/>
</g>
</svg>
